mtllib materials.mtl
v 0.08000004 -0.04000008 -5.587935E-09
v -0.06000006 -0.05999994 -0.06000001
v -0.06000006 -0.03999996 -0.03000001
v -0.06999993 -0.01999986 -0.03000001
v -0.06000006 -0.05999994 9.313226E-09
v -0.06999993 -0.01999986 0.03000004
v -0.06000006 -0.03999996 0.03000003
v -0.06000006 -0.05999994 0.06000003
vn -0.1180339 -0.8262341 0.5508223
vn 0.232535 0.6200895 -0.7492774
vn -0.857147 -0.4285657 0.2857105
vn -0.857147 -0.4285659 0.2857103
vn -0.8571469 -0.4285657 -0.2857105
vn -0.8571472 -0.4285659 -0.2857099
vn 0.2325352 0.6200895 0.7492774
vn -0.0834938 0.5844616 0.8071142
vn -0.08349396 0.5844617 -0.8071142
vn 0.1180326 -0.8262344 -0.5508223
vn 0.1180326 -0.8262343 0.5508222
vn -0.1180341 -0.8262341 -0.5508224
vt 0.08539864 0.1138572
vt 0.078995 0.09989318
vt 0.08259972 0.0998156
vt -0.08992991 0.110081
vt -0.09253336 0.1252211
vt -0.09502824 0.109997
vt -0.07703961 -0.04444489
vt -0.08106565 -0.04757395
vt -0.07882958 -0.04757474
vt -0.07704108 -0.0501956
vt -0.0810671 -0.05332471
vt -0.07883102 -0.05332548
vt -0.08104813 0.04381355
vt -0.07702324 0.04068301
vt -0.07881206 0.04381352
vt -0.08104806 0.04956333
vt -0.07702317 0.04643279
vt -0.07881199 0.0495633
vt 0.03766173 0.148679
vt 0.04086747 0.1336549
vt 0.04563237 0.1354703
vt 0.02779519 0.1788866
vt 0.03378799 0.1660769
vt 0.03857034 0.1678459
vt -0.09862277 0.1429484
vt -0.09352419 0.1430156
vt -0.09253325 0.157123
vt 0.00158927 0.1649417
vt -0.007510452 0.1538875
vt -0.004369886 0.1521164
vt 0.08559525 0.1426253
vt 0.08422396 0.1285498
vt 0.08782889 0.1284828
vt -0.009536659 0.139895
vt -0.01459008 0.1264986
vt -0.01149009 0.1246574
o group391852140
g mesh391852140
usemtl mat21
f 3/3/1 2/2/1 1/1/1
f 4/6/2 1/5/2 2/4/2
f 3/9/3 4/8/3 2/7/3
f 7/12/4 6/11/4 5/10/4
f 7/15/5 8/14/5 6/13/5
f 3/18/6 5/17/6 4/16/6
f 6/21/7 8/20/7 1/19/7
f 4/24/8 5/23/8 1/22/8
f 1/27/9 5/26/9 6/25/9
f 5/30/10 3/29/10 1/28/10
f 7/33/11 5/32/11 1/31/11
f 8/36/12 7/35/12 1/34/12
